<?xml version="1.0" encoding="UTF-8"?>
<svg id="Layer_1" xmlns="http://www.w3.org/2000/svg" xmlns:xlink="http://www.w3.org/1999/xlink" version="1.1" viewBox="177.0 279.5 1041.0 1041.0">
  <!-- Generator: Adobe Illustrator 30.5.1, SVG Export Plug-In . SVG Version: 2.1.4 Build 3)  -->
  <defs>
    <style>
      .st0 {
        fill: url(#linear-gradient2);
      }

      .st1 {
        fill: url(#linear-gradient1);
      }

      .st2 {
        fill: url(#linear-gradient9);
      }

      .st3 {
        fill: url(#linear-gradient3);
      }

      .st4 {
        fill: url(#linear-gradient6);
      }

      .st5 {
        fill: url(#linear-gradient8);
      }

      .st6 {
        fill: url(#linear-gradient7);
      }

      .st7 {
        fill: url(#linear-gradient5);
      }

      .st8 {
        fill: url(#linear-gradient4);
      }

      .st9 {
        fill: url(#linear-gradient12);
      }

      .st10 {
        fill: url(#linear-gradient11);
      }

      .st11 {
        fill: url(#linear-gradient10);
      }

      .st12 {
        fill: url(#linear-gradient);
      }

      .st13 {
        fill: #bf9c61;
      }

      .st14 {
        fill: #0e4061;
      }

      .st15 {
        fill: #155d6d;
      }
    </style>
    <linearGradient id="linear-gradient" x1="377.42" y1="811.96" x2="636.96" y2="7819.52" gradientUnits="userSpaceOnUse">
      <stop offset="0" stop-color="#96af8c"/>
      <stop offset=".51" stop-color="#90b189"/>
      <stop offset="1" stop-color="#92ad8f"/>
    </linearGradient>
    <linearGradient id="linear-gradient1" x1="1022.17" y1="810.22" x2="1287.45" y2="7972.79" xlink:href="#linear-gradient"/>
    <linearGradient id="linear-gradient2" x1="373.86" y1="887.52" x2="555" y2="5778.48" xlink:href="#linear-gradient"/>
    <linearGradient id="linear-gradient3" x1="1023.17" y1="886.28" x2="1205.07" y2="5797.47" xlink:href="#linear-gradient"/>
    <linearGradient id="linear-gradient4" x1="649.48" y1="486.45" x2="673.31" y2="1130.01" xlink:href="#linear-gradient"/>
    <linearGradient id="linear-gradient5" x1="564.66" y1="522.63" x2="586.52" y2="1112.82" xlink:href="#linear-gradient"/>
    <linearGradient id="linear-gradient6" x1="830.08" y1="522.82" x2="850.95" y2="1086.26" xlink:href="#linear-gradient"/>
    <linearGradient id="linear-gradient7" x1="745.01" y1="487.05" x2="768.17" y2="1112.18" xlink:href="#linear-gradient"/>
    <linearGradient id="linear-gradient8" x1="732.3" y1="536.99" x2="728.85" y2="1013.67" gradientUnits="userSpaceOnUse">
      <stop offset="0" stop-color="#0a6c6b"/>
      <stop offset=".51" stop-color="#81966f"/>
      <stop offset="1" stop-color="#94a989"/>
    </linearGradient>
    <linearGradient id="linear-gradient9" x1="901" y1="816.61" x2="895.37" y2="1124.06" gradientUnits="userSpaceOnUse">
      <stop offset="0" stop-color="#7b9179"/>
      <stop offset=".71" stop-color="#6c8e74"/>
      <stop offset="1" stop-color="#095366"/>
    </linearGradient>
    <linearGradient id="linear-gradient10" x1="571.98" y1="809.7" x2="566.33" y2="1118.56" xlink:href="#linear-gradient9"/>
    <linearGradient id="linear-gradient11" x1="940.02" y1="447.35" x2="959.77" y2="1268.68" gradientUnits="userSpaceOnUse">
      <stop offset="0" stop-color="#0c6f78"/>
      <stop offset=".51" stop-color="#06506a"/>
      <stop offset="1" stop-color="#3d6e84"/>
    </linearGradient>
    <linearGradient id="linear-gradient12" x1="443.56" y1="459.14" x2="463.13" y2="1272.91" xlink:href="#linear-gradient11"/>
  </defs>
  <g>
    <g>
      <path class="st13" d="M710.91,622.65c-3.19-1.99-7.18-3.63-8.27-7.22-.6-1.98-.23-4.38-.96-6.19-.21-.52-.51-1-.96-1.4-1.79-1.62-4.89-.68-6.26,1.3-1.38,1.98-1.46,4.57-1.29,6.98.13,1.78.23,3.87-1.16,4.98-.61.48-1.39.67-2.14.89-6.98,2.1-11.92,8.96-12.91,16.18-2.3,16.86,12.91,32.62,29.96,26.6,8.28-2.93,14.45-11,15.23-19.75.78-8.75-3.79-17.73-11.24-22.37Z"/>
      <path class="st13" d="M651.14,582.32c-2.02-.77-4.18-1.28-6.27-1.76-4.1-.93-8.39-1.86-12.48-.85-6.3,1.57-10.77,7.72-11.72,14.15-1.78,12.05,4.32,22.13,16.29,24.19,4.6.79,9.56.99,13.72-1.14,5.79-2.97,8.62-9.73,9.5-16.18.7-5.17.25-10.96-3.31-14.78-1.57-1.69-3.57-2.81-5.73-3.63Z"/>
      <path class="st13" d="M763.39,579.78c-4.28-1.66-9.08-.44-13.5.79-4.65,1.29-9.6,2.77-12.7,6.47-2.98,3.55-3.66,8.58-2.89,13.14,1.74,10.2,9.75,17.58,18.61,18.48,5.42.55,11.17-1.33,15.99-6.48,7.48-7.98,6.97-22.08-1.06-29.5-1.31-1.21-2.79-2.26-4.44-2.9Z"/>
      <path class="st13" d="M522.53,694.92c-2.13-1.47-4.66-2.27-7.2-2.76-5.31-1.02-10.85-.74-16.06.71-1.09.3-2.18.67-3.13,1.29-1.04.68-1.85,1.65-2.56,2.67-9.27,13.24.26,30.36,13.37,32.84,4.68.88,9.82-.09,14.72-3.78,7.41-5.57,10.03-16.64,5.9-24.94-1.18-2.37-2.86-4.53-5.04-6.03Z"/>
      <path class="st13" d="M903.54,700.97c-1.38-3.37-3.79-6.48-7.13-7.9-.06-.02-.11-.05-.17-.07-3.83-1.54-8.14-.68-12.26-.85-2.34-.1-4.7-.54-7-.11-3.37.63-6.16,3.06-8.1,5.89-12.06,17.58,8.38,40.2,26.72,28.59,8.19-5.18,11.63-16.59,7.94-25.55Z"/>
    </g>
    <path class="st15" d="M607.57,669.16l-1.98-.14c-.42-.01-.79.28-.83.7l-.19,1.97c-1.48,15.46,6.92,32.87,25.84,36.26l4.87.87s.09.01.14.01c.26,0,.51-.13.66-.36.17-.27.16-.61-.02-.87l-12.74-18.05c1.87.68,6.41,3.23,14.13,10.67l4.49,4.33c.24.24.61.29.91.13.3-.16.46-.49.4-.82l-1.09-6.14c-2.87-16.29-16.13-27.23-34.59-28.56Z"/>
    <path class="st15" d="M752.74,575.56l-.28,2.73c-.02.25.07.49.25.66.14.13.33.2.52.2.05,0,.1,0,.15-.02l2.69-.53c9.02-1.78,14.78-8.73,14.33-17.3l-.13-2.45c-.01-.23-.13-.45-.31-.59s-.42-.19-.65-.13l-2.38.58c-8.37,2.04-13.28,7.87-14.2,16.84Z"/>
    <path class="st12" d="M488.84,573.93c-4.45-8.54-6.31-16.05-8.02-25.04l-45.09,29.48c-69.47,51.83-121.26,121.22-149.53,200.5-39.32,110.28-31.26,234,22.1,339.72l47.21-13.87-18.75-37.81c-53.42-128.97-33.78-274.97,51.26-381.03,12.93-16.13,25.96-31.83,42.93-46.53-.17-.91-.36-1.82-.56-2.78-.59-2.82-1.13-5.48-1.15-8.51l-.02-3.08,2.82-1.24c7.06-3.1,14.03-4.53,22.1-6.19,1.05-.22,2.03-.42,2.99-.62-1.32-1.66-2.64-3.2-3.94-4.71-3.09-3.61-6.01-7.01-8.02-10.97l-1.73-3.4,2.98-2.38c13.5-10.76,27.03-17.65,42.4-21.54Z"/>
    <path class="st1" d="M1051.97,671.89c-36.43-49.98-82.73-91.23-137.64-122.65-1.88,9.34-4.29,16.64-8.19,24.79,17.07,4.45,31.75,13.45,43.93,21.75l4.38,2.99-16,18.19c1.14.26,2.27.52,3.39.77,7.81,1.75,15.2,3.4,22.12,7.13l3.14,1.69-2.93,12.74c38.93,36.31,69.86,79.26,91.95,127.67,47.59,110.64,41.71,233.48-16.04,337.51l46.5,14.17c72.97-146.24,59.75-317.29-34.6-446.75Z"/>
    <path class="st0" d="M398.09,705.68l-24.42,36.12c-62.91,111.1-62.13,248.08,1.96,357.88l33.06-7.52c-25.32-42.37-40.56-85.19-46.59-130.81-10.65-79.86,8.64-160.43,54.34-227.05-8.03-7.74-13.53-16.3-18.35-28.63Z"/>
    <path class="st3" d="M1051.32,811.02c-11.66-37.52-29.85-72.99-54.1-105.47-5.67,12.24-11.44,21.4-18.39,29.23,73.22,108.79,76.19,242.08,8,357.33l32.75,7.4c50.99-88.02,62.27-190.41,31.74-288.5Z"/>
    <path class="st13" d="M804.85,775.78c-.68-1.41-1.5-2.75-2.44-4-1.67-2.23-13.04-13.08-15.41-7.46-2.9,6.88-1.69,14.83,2.68,20.81,2.77,3.79,15.56,14.27,17.27,4.77.86-4.78.02-9.76-2.09-14.12Z"/>
    <path class="st13" d="M596.58,775.78c.68-1.41,1.5-2.75,2.44-4,1.67-2.23,13.04-13.08,15.41-7.46,2.9,6.88,1.69,14.83-2.68,20.81-2.77,3.79-15.56,14.27-17.27,4.77-.86-4.78-.02-9.76,2.09-14.12Z"/>
    <path class="st13" d="M972.98,664.51l-1.93-.81c-7.87-3.31-17.2-6.06-26.73-1.39-4.65,2.28-12.75,7.6-14.82,17.65l-.31,1.53c-.07.35.1.7.42.86l1.4.69c5.09,2.53,10.14,3.82,15,3.82,2.96,0,5.83-.48,8.53-1.44,7.58-2.67,13.79-8.88,17.97-17.95l.88-1.91c.09-.19.09-.41.02-.61-.08-.2-.23-.35-.43-.44Z"/>
    <path class="st13" d="M422.16,667.17c3.54,8.79,10.38,15.48,18.77,18.36,2.87.98,5.84,1.48,8.83,1.48,4.93,0,9.92-1.38,14.42-4l1.5-.87c.33-.19.47-.6.34-.96l-.62-1.61c-3.28-8.53-9.23-14.85-16.77-17.79-7.72-3.01-16.64-2.36-25.1,1.82l-1.69.83c-.37.18-.53.61-.38.99l.7,1.74Z"/>
    <path class="st13" d="M576.81,577.98l-1.18-.73c-.26-.16-.59-.1-.78.14l-.85,1.1c-4.53,5.85-5.92,12.46-3.89,18.62,1.45,4.43,6.29,10.04,11.85,11.77l1.15.36c.06.02.12.03.18.03.2,0,.4-.1.5-.28l.63-1.02c6.7-10.95,3.65-23-7.61-29.97Z"/>
    <path class="st13" d="M821.65,576.54l-.9-1.34c-.2-.29-.58-.39-.89-.22l-1.43.76c-6.5,3.45-11.27,9.64-12.77,16.57-1.42,6.52.11,13.13,4.31,18.6l.89,1.16c.13.17.34.27.55.27.1,0,.2-.02.3-.07l1.32-.64c6.42-3.13,11.62-9.05,13.25-15.09,2.23-8.21-1.09-14.71-4.62-19.98Z"/>
    <path class="st15" d="M858.65,637.06l.96-2.16c.09-.21.09-.45,0-.65-.09-.21-.28-.36-.5-.42l-2.27-.63c-10.86-2.98-20.22.93-27.08,11.32l-1.47,2.22c-.14.2-.17.46-.09.69.08.23.27.41.5.49l2.53.83c2.45.8,4.96,1.21,7.46,1.21,8.77,0,16.42-4.94,19.97-12.89Z"/>
    <path class="st15" d="M564.38,645.11c-5.13-10.9-15.11-15.14-26.68-11.33l-2.44.8c-.23.07-.41.25-.49.47-.08.22-.06.47.07.68l1.35,2.19c4.81,7.79,11.79,12.09,19.66,12.09,2.21,0,4.49-.34,6.78-1l2.28-.66c.22-.06.4-.22.49-.43.09-.21.09-.45,0-.65l-1.01-2.15Z"/>
    <path class="st15" d="M643.84,518.48l-2.25-.57c-.21-.06-.45-.01-.63.11-.19.13-.31.33-.33.55l-.27,2.31c-3.16,26.86,6.56,45.19,26.67,50.29l4.22,1.07c.06.02.13.02.19.02.23,0,.45-.1.6-.29.19-.23.23-.56.1-.83l-11.91-24.62,18.91,18.99c.2.21.52.29.8.19.28-.09.48-.34.53-.63l.59-4c2.99-20.24-10.58-35.76-37.21-42.58Z"/>
    <path class="st15" d="M754.34,521.49l-.41-1.86c-.09-.4-.48-.65-.88-.6l-1.88.29c-19.28,2.96-39.06,17.48-37.77,38.55l.26,4.29c.02.3.21.57.49.68.28.11.6.05.82-.15l19.57-18.21s.09-.07.12-.08c-.06.17-.16.39-.31.65l-13.9,24.44c-.15.27-.13.61.05.85.15.2.38.31.63.31.06,0,.12,0,.18-.02l4.54-1.08c20.5-4.86,33.28-26.42,28.49-48.06Z"/>
    <path class="st15" d="M954.13,769.43c-11.65-19.79-28.12-27.79-45.21-21.95l-4.27,1.46c-.29.1-.49.36-.52.66-.03.31.13.6.39.75l21.41,12.18-25.62-5.53c-.29-.07-.6.05-.78.28-.18.23-.22.56-.09.82l1.85,3.76c5.43,11.06,15.18,16.91,28.2,16.91,7.28,0,15.36-1.85,23.33-5.35l2.09-.92c.2-.09.36-.26.43-.47.07-.21.04-.44-.07-.64l-1.16-1.97Z"/>
    <path class="st15" d="M494.77,756.98l-25.85,5.42,21.49-12.02c.27-.15.42-.45.4-.75s-.23-.57-.52-.67l-4.29-1.48c-17.5-6.02-35.17,2.86-45.04,22.62l-.98,1.96c-.1.2-.11.42-.03.63.08.2.24.37.44.45l2.03.82c7.97,3.24,15.51,4.88,22.42,4.88,13.03,0,23.28-6.03,28.87-16.97l1.93-3.78c.14-.27.11-.59-.08-.83-.18-.24-.47-.35-.78-.29Z"/>
    <path class="st15" d="M790.29,670.21c0-.43-.35-.77-.78-.77h-2.01c-15.37.07-32.3,9.75-34.89,28.15l-.76,5.35c-.05.32.11.64.4.79.29.15.64.12.88-.09l4.09-3.53c.92-.8,1.86-1.62,2.78-2.44,5.83-5.13,9.54-7.94,11.08-8.36l-12.05,17.57c-.18.26-.18.6-.02.86.14.23.39.36.66.36.04,0,.08,0,.12,0l4.67-.74c16.23-2.59,26.13-16.05,25.85-35.13l-.03-2.01Z"/>
    <path class="st15" d="M896.37,644.85c-1.34,1.64-2.52,3.4-3.5,5.28-.84,1.62-2.35,4.2-2.33,6.08.04,3.77-.41,2.7,3.13,2.47,5.2-.34,11.84-4.21,16.78-5.96,1.14-.41,2.77-.62,3.25.49-4.36,2.98-8.73,5.96-13.09,8.94-1.71,1.17-3.6,2.68-3.56,4.75.06,2.88,3.64,4.15,6.51,4.34,10.67.7,21.56-3.07,29.52-10.21,7.03-6.31,11.63-14.91,14.92-23.77.14-.39.28-.81.14-1.2-.18-.47-.7-.68-1.18-.84-11.22-3.83-23.68-5.13-34.88-1.23-6.04,2.1-11.62,5.89-15.7,10.87Z"/>
    <path class="st15" d="M714.68,592.7l-1.96-.1c-5.07-.19-9.93,1.84-13.62,5.81-4.69,5.05-7.05,12.73-6.15,20.04l.28,2.32c.03.22.15.43.34.55.13.09.28.13.44.13.07,0,.13,0,.2-.03l2.26-.6c12.01-3.2,18.73-12.21,18.93-25.37l.03-1.96c0-.42-.32-.77-.74-.79Z"/>
    <path class="st15" d="M455.38,735.23c3.51,0,6.98-.49,10.3-1.46l3.11-.91c.26-.07.46-.28.53-.54s0-.54-.17-.74l-2.18-2.4c-4.52-4.99-9.85-8.13-14.57-10.92-2.65-1.56-5.03-2.97-6.94-4.48,6.05,1.17,17.34,4.93,27.81,10.58l5.12,2.76c.29.15.65.11.9-.11.24-.22.32-.58.19-.88l-2.29-5.35c-10.14-23.7-30.97-32.11-61.91-25l-2.16.5c-.21.05-.4.19-.51.38-.11.19-.13.42-.06.63l.69,2.11c7.34,22.44,23.09,35.83,42.13,35.83h0Z"/>
    <path class="st15" d="M624.15,558.61c-.17.15-.27.38-.27.61l.06,2.42c.21,9.07,6.19,15.41,14.52,15.41h2.4c.23,0,.44-.11.59-.28.15-.17.21-.4.18-.62l-.34-2.31c-1.24-8.49-6.25-13.83-14.11-15.04l-2.39-.37c-.22-.03-.46.03-.63.18Z"/>
    <path class="st15" d="M466.54,603.78c9.01,12.59,22.11,19.81,35.93,19.81h0c7.65,0,15.19-2.29,21.8-6.63l3.82-2.5c.26-.17.39-.47.34-.78-.05-.3-.27-.55-.57-.63l-28.03-7.37,28.49-.66c.3,0,.58-.19.7-.48.12-.28.06-.61-.15-.83l-3.03-3.3c-14.57-15.85-35.94-16.08-58.61-.59l-1.71,1.17c-.17.12-.29.3-.33.51-.04.21.01.42.13.59l1.21,1.69Z"/>
    <path class="st15" d="M487.22,670.73c2.72,0,5.55-.25,8.41-.76l4.83-.85c.31-.05.56-.29.63-.6.07-.31-.05-.63-.31-.81l-23.48-16.46c-.65-.46-1.04-.77-1.27-.98l28.99,9.92c.29.1.61.02.82-.2.21-.22.27-.55.16-.83l-1.7-4.14c-8.39-20.44-27.41-27.52-55.01-20.47l-2.12.54c-.21.05-.39.19-.49.38-.1.19-.12.42-.05.62l.7,2.08c7.1,20.99,21.28,32.56,39.91,32.56Z"/>
    <path class="st15" d="M481.63,679.27l-2.15,1.01c-.21.1-.36.28-.42.5-.06.22-.02.46.11.64l1.34,1.97c2.98,4.37,7.62,6.78,13.08,6.78,2.77,0,5.59-.62,8.41-1.84l2.44-1.06c.22-.1.39-.29.45-.53.06-.24,0-.49-.15-.68l-1.67-2.07c-5.64-7.02-13.05-8.66-21.43-4.72Z"/>
    <path class="st15" d="M900.45,677.77c-4.14,1.2-7.45,3.87-9.3,7.53l-1.16,2.29c-.11.21-.11.46-.01.68s.29.38.52.43l2.5.6c2.92.7,5.33,1.02,7.59,1.02,5.73,0,10.37-2.11,14.18-6.44l1.61-1.83c.15-.17.22-.41.19-.64-.04-.23-.17-.43-.37-.55l-2.1-1.25c-4.18-2.49-9.16-3.16-13.65-1.84Z"/>
    <path class="st15" d="M544.67,762.12c-.27-.12-.6-.07-.82.12l-22.62,19.5c.02-.14.07-.29.16-.43l16.5-25.67c.17-.26.17-.59,0-.85-.16-.25-.45-.39-.77-.35l-4.42.66c-22.35,3.33-35.66,22.14-33.89,47.92l.15,2.13c.01.21.12.41.28.55.14.12.32.18.5.18.03,0,.06,0,.09,0l2.12-.25c28.3-3.38,44.1-17.44,43.35-38.59l-.15-4.22c-.01-.3-.19-.57-.47-.69Z"/>
    <path class="st15" d="M862.27,755.06l-4.47-.77c-.31-.05-.61.08-.78.33-.17.26-.18.59-.02.85l14.8,23.71-20.68-17.33c-.23-.19-.54-.23-.81-.12-.27.12-.45.38-.47.67l-.22,4.06c-1.13,20.99,15.06,35.72,43.28,39.41l2.22.29s.07,0,.1,0c.18,0,.36-.07.51-.19.17-.14.27-.35.27-.57l.07-2.24c.84-27.11-11.16-44.2-33.81-48.12Z"/>
    <path class="st15" d="M870.6,616.79c6.82,4.57,14.23,6.89,22.04,6.89,2.58,0,5.21-.26,7.8-.78,11.29-2.26,21.61-9.39,28.33-19.54l1.15-1.73c.12-.18.16-.39.11-.59-.04-.21-.17-.38-.35-.5l-1.76-1.11c-24.17-15.15-44.81-14.88-58.12.75l-2.63,3.09c-.19.23-.24.54-.13.81.12.27.38.46.67.47l27.3,1.67-28.02,6.56c-.3.07-.54.32-.59.62s.08.62.33.79l3.87,2.6Z"/>
    <path class="st8" d="M640.29,463.52l-1.68-.44c-.36-.1-.76.09-.91.44l-.7,1.59c-3.92,8.94-4.79,18.08-2.52,26.42,3.24,11.93,12.5,19.99,25.4,22.12l1.59.26s.09.01.13.01c.31,0,.6-.19.72-.48l.61-1.5c4.22-10.32,3.98-21.56-.65-30.86-4.34-8.72-12.16-14.96-22.01-17.56Z"/>
    <path class="st7" d="M576.9,515.04c-7.49-7.87-17.04-12.52-27.59-13.43l-1.95-.17c-.4-.04-.79.27-.84.68l-.24,1.94c-1.7,13.37.66,24.3,7.01,32.49,5.35,6.92,14.41,11.21,23.65,11.21,1.23,0,2.46-.07,3.66-.22l1.5-.18c.34-.04.62-.3.67-.65l.25-1.49c1.9-11.33,0-21.07-5.86-29.85l-.27-.32Z"/>
    <path class="st4" d="M847.32,501.94c-.1-.39-.5-.63-.89-.57l-1.84.34c-12.73,2.34-22.42,7.95-28.01,16.23-5.1,7.55-6.59,16.81-4.41,27.53l.32,1.57c.07.35.38.61.74.63l1.59.06c.54.02,1.07.03,1.59.03,9.76,0,16.07-3.25,22.6-8.2l.42-.41c8.78-10.87,11.68-23.11,8.38-35.38l-.49-1.81Z"/>
    <path class="st6" d="M757.37,464.16c-3.88-2.38-11.89,2.93-15.57,6.09-6.2,5.29-19.61,20.01-10.36,42.29l.67,1.61c.12.3.41.48.72.48.06,0,.13,0,.19-.02l1.7-.42c9.83-2.46,18.52-8.05,22.13-14.26,8.45-14.51,4.63-33.25.53-35.77Z"/>
    <path class="st15" d="M720.09,496.52c.41-15.4-7.1-32.04-20.62-45.65l-1.49-1.5c-.15-.15-.42-.24-.57-.23-.21,0-.42.09-.56.25l-1.44,1.56c-25.24,27.35-27.73,54.89-6.84,75.58l2.99,2.96c.15.15.35.23.55.23.09,0,.18-.02.26-.04.28-.1.48-.35.51-.65l4.4-40.15c.02-.23.07-.41.14-.55.17.26.34.64.39,1.12l3.97,39.27c.03.29.22.54.5.65.27.1.58.05.8-.15l2.98-2.7c8.86-8.03,13.71-18.39,14.02-29.98Z"/>
    <path class="st15" d="M601.27,546.62c.19.25.5.37.81.29.3-.07.54-.32.59-.63l5.43-31.1c1.7,4.27,2,21.49,2.12,28.32l.13,7.09c0,.32.21.61.52.72.09.03.17.05.26.05.23,0,.44-.1.59-.27l3.48-4.08c15.6-18.29,11.96-39.51,3.36-53.28-2.04-3.26-7.27-10.74-11.72-9.55-2.1.54-3.13,2.36-3.9,3.73-.2.35-.44.78-.57.93-14.51,16.38-16.04,37.57-3.9,53.98l2.82,3.81Z"/>
    <path class="st5" d="M543.33,745.6c21.95-3.31,43.78-10.62,65.84-8.12-20.37,9.72-42.32,21.01-51.49,41.63,7.91,3.13,16.86-1.55,22.82-7.62,5.96-6.07,10.4-13.67,17.22-18.76,13.11-9.78,32.72-7.46,45.56,2.67,12.84,10.13,19.58,26.46,21.5,42.71,1.92,16.24-.43,32.66-2.77,48.85-18.83-12.33-46.66-15.45-62.14.89-11.9,12.57-12.52,32.04-9.65,49.11,8.53,50.7,43.6,94.88,85.25,123.52.11-32.37.22-64.74.34-97.11-14.15-.34-28.29-.68-42.44-1.02-2.88-.07-6-.22-8.22-2.05-2.9-2.39-3.19-6.66-3.24-10.42l-.22-15.15c-.06-3.87.04-8.17,2.68-11.01,2.87-3.09,7.61-3.27,11.83-3.23,13.43.11,26.87.23,40.3.34-.26-12.27-.52-24.54-.78-36.81-.07-3.38-.12-6.88,1.25-9.97,3.94-8.92,16.27-9.27,25.97-8.22,5.27.57,11.31,1.63,13.97,6.21,1.49,2.56,1.54,5.67,1.56,8.63.06,13.46.13,26.91.19,40.37,13.36-.21,26.73-.42,40.09-.63,4.35-.07,9.37.17,12.03,3.61,1.85,2.38,1.97,5.63,2.02,8.64.08,5.14.17,10.28.25,15.42.07,4.48-.19,9.67-3.78,12.34-2.32,1.72-5.42,1.87-8.31,1.94-14.12.37-28.24.74-42.36,1.11.23,32.63.45,65.26.68,97.9,36.72-29.78,70.1-66.61,83.5-111.96,4.98-16.86,6.84-35.9-1.56-51.35-12.54-23.06-48.35-28.64-67.31-10.5-4.07-24.01-7.96-49.65,1.86-71.93,9.82-22.28,39.19-37.59,59.38-23.98,7.51,5.06,12.44,13.07,18.79,19.52,6.35,6.46,15.69,11.61,24.23,8.59-8.78-21.31-31.67-32.59-52.71-42.02,34.27-6.2,69.96,17.51,103.17,7.03,22.34-7.05,38.94-28.54,62.16-31.63-9.76,4.15-18.37,10.95-24.67,19.48,23.49,7.69,51.76-10.34,54.68-34.88-19.92-10.28-47.12-2.97-59.2,15.92-2.87,4.49-5.04,9.59-9.08,13.07-3.86,3.32-8.97,4.75-13.95,5.77-26.37,5.44-54.47,2.11-78.84-9.35,16.42-6.22,32.49-14.63,44.21-27.7,11.73-13.07,18.54-31.48,14.4-48.54-4.05,18.49-15.32,35.3-30.87,46.08-19.75,13.69-44.52,17.18-67.9,22.74-23.38,5.57-48,14.95-60.59,35.42-2.21-47.49,33.39-93.97,79.81-104.22,8.15-1.8,18.18-1.91,23.11,4.82-9.67,2.43-15.92,13.97-12.67,23.39,3.24,9.43,15.27,14.67,24.38,10.64,9.12-4.03,13.32-16.46,8.53-25.2-5.28-9.64-18.58-13.38-22.37-23.7,13.6-8.6,17.88-26.01,22.53-41.41,4.65-15.4,13.19-32.49,29-35.46-8.38,7.87-15.04,17.56-19.4,28.2,26.69.02,50.2-26.59,46.89-53.08-22.04-4.98-46.75,7.35-56.02,27.97-7.01,15.6-5.8,34.41-15.12,48.75-9.03,13.91-25.8,20.34-41.59,25.41,7.24-25.67,14.48-51.34,21.73-77.01-4.4,3.7-8.79,7.4-13.19,11.1-9.54-16.72-12.31-37.18-7.57-55.83,0,.03.01.06.02.1,1.82,10.45,3.64,20.9,5.46,31.35,15.88-15.76,15.18-44.96-1.44-59.93-1.48-1.33-3.27-2.62-5.25-2.42-1.61.17-2.94,1.29-4.08,2.43-9.44,9.34-14.13,23.27-12.26,36.42,1.78,12.51,8.93,23.53,13.05,35.48,11.93,34.63-5.9,76.85-39.05,92.44-.24-12.59-5.66-24.99-14.71-33.74,6.6,34.8-13.32,68.54-32.41,98.37-8.18-24.32-27.64-45.79-26.51-71.43.85-19.22,13.21-35.64,22.71-52.37,9.5-16.73,16.28-38.19,6.2-54.57,2.38,41.85-46.36,72.14-47.74,114.03-31.84-16.68-49.51-56.57-40.48-91.36-5.36-.2-10.15,5.35-9.16,10.62-4.97-3.23-9.95-6.45-14.92-9.68,7.38,25.08,14.76,50.17,22.15,75.25-19.69-2.2-37.68-15.84-45.11-34.2-5.16-12.74-5.46-27.12-11.18-39.62-9.39-20.53-34.16-32.7-56.16-27.57-3.26,25.99,19.12,52.26,45.3,53.18-2.91-10.51-8.97-20.14-17.19-27.31,15.84,2.5,24.07,20.02,28.33,35.49,4.26,15.46,8.69,33.22,22.91,40.63-5.5,4.14-9.43,10.31-10.86,17.04-9.07-1.32-17.4,8.41-15.91,17.45,1.49,9.04,11,15.49,20.14,14.95,8.77-.51,17.12-7.26,18.39-15.95,1.27-8.69-5.71-18.03-14.49-18.28,3.14-7.19,13.14-7.64,20.82-6.07,47.22,9.69,83.85,56.61,81.79,104.77-11.64-18.88-33.86-28.34-55.34-33.86-21.48-5.52-44.08-8.42-63.5-19.12-20.19-11.12-35.63-30.55-41.9-52.73-2.87,17.64,4.1,35.96,15.89,49.39,11.78,13.43,27.92,22.43,44.72,28.52-24.35,12.52-53.54,15.32-79.82,7.64-4.69-1.37-10.07-2.98-14.18-.33,14.87,16.49,40.12,18.35,62.07,15.04Z"/>
    <g>
      <path class="st2" d="M1096.63,1136.06c-42.86-15.52-90-27.43-148.32-37.49-26.49-24.55-52.53-36.46-92.71-42.44-29.08-4.34-46.68-18.19-53.82-42.35l-1.03-3.47c-.24-.81-.89-1.43-1.75-1.63-.82-.17-1.69.11-2.23.72l-24.41,27.1c-19.13,21.24-42.56,40-73.75,59.05l-5.95,3.63c-.89.54-1.32,1.61-1.05,2.62.27,1,1.18,1.71,2.22,1.73l6.99.12c118.66,2.02,258.73,7.94,392.73,41.63l1.94.4,3.94-8.62-2.79-1.01ZM843.19,1085.48c-20.1-3.64-45.12-8.17-55.41-34.35l-1.63-4.14,3.45,2.8c15.25,12.36,27.65,18.96,40.21,21.38l50.12,9.88-.31,1.13.32-1.13c12.55,3.41,24.41,6.63,35.66,15.53l3.69,2.92-76.1-14.03Z"/>
      <path class="st11" d="M761.5,1033.17c12.42-11.92,22.59-24.83,32.76-38.13l1.21-1.58.48-.32v-.32c25.39-33.52,53.23-83.45,42.62-131.69-4.3-19.52-15.86-35.55-32.56-45.14-16.54-9.51-36.07-11.55-55.02-5.75l-1.1.34v15.92l1.91-.44c20.08-4.57,41.13,2.11,53.64,17.04,15.14,18.06,17.06,48.13,5.14,80.42-7.67,20.79-18.99,40.31-33.66,58.05-8.07,9.76-16.42,19.85-26.77,28.86l-5.72,5.01c-15.13,13.27-29.44,25.81-47.02,35.62-22.5-13.07-41-29.49-61.77-50.08-62.22-61.65-60.16-115.41-58.05-130.42,2.21-15.68,10.92-29.41,23.9-37.69,13.15-8.38,29.58-10.49,45.26-5.75l1.95.51v-15.58l-.96-.4c-.54-.22-1.09-.44-1.71-.65-19.36-6.69-39.48-5.04-56.66,4.66-17.31,9.77-29.22,26.34-33.54,46.65-4.11,19.29-2.13,40.28,6.05,64.18,9.91,28.94,26.84,56.49,53.29,86.72,9.42,10.76,12.79,23.79,9.5,36.7-6.31,24.76-37.38,32.18-62.33,34.05-32.65,2.45-60.41,5.82-86.8,10.55,14.43-8.9,30.75-14.45,48.57-16.53l46.15-5.38c10.28-1.2,25.31-3.86,36.96-13.17,5.58-4.45,8.65-11.61,8.42-19.63-.3-10.67-6.2-21.09-15.77-27.88l-2.34-1.66c-.59-.41-1.34-.53-2.13-.29-.71.26-1.26.84-1.46,1.56l-.79,2.75c-6.06,21-22.84,35.7-46.05,40.33l-35.45,7.06c-22.52,4.49-43.09,16.17-64.71,36.76l-3.11.59c-48.69,9.22-99.03,18.75-146.46,38l-1.62.66,4.26,7.87,1.15-.26c70.2-15.68,130.58-25.53,190.01-30.99,49.73-4.58,98.27-7.79,148.4-9.83,11.91-.49,22.65-4.45,33.52-8.81,27.26-10.94,52.53-28.1,79.54-53.99l8.89-8.53Z"/>
    </g>
    <path class="st10" d="M738.75,466.68c3.11-2.66,13.81-10.96,21.06-6.52h0c4.21,2.59,7,11.4,6.68,21.43.98.15,1.95.34,2.93.5,1.12-1.35,2.28-2.66,3.53-3.9,1.48-1.46,5.4-5.33,11.58-5.97,5.19-.53,10.2,1.34,14.89,5.56,3.99,3.6,7.35,7.88,10.02,12.64,9.47,2.43,18.83,5.16,28.05,8.18,2.01-.57,4.07-1.09,6.23-1.49l1.84-.34c2.9-.45,5.54,1.26,6.26,3.96l.49,1.8c.11.43.16.85.26,1.27,14.53,5.33,28.71,11.41,42.5,18.15,2.16.23,4.32.54,6.45,1.02,3.71.84,6.73,3.3,8.37,6.56,142.27,76.19,239.27,226.3,239.27,398.66,0,78.63-20.19,152.62-55.65,217.09,9.63,1.99,19.15,4.05,28.56,6.18,35.23-66.73,55.19-142.71,55.19-223.27,0-259.01-206.22-470.7-463.08-479.65,7.31,8.84,12.6,18.58,15.58,28.47,3.02-4.71,6.5-8.22,8.97-10.34Z"/>
    <path class="st9" d="M301.03,1145.29c-35.46-64.46-55.65-138.46-55.65-217.09,0-172.56,97.24-322.83,239.79-398.93,1.66-3.11,4.58-5.46,8.15-6.29,2.06-.48,4.13-.8,6.22-1.05,13.65-6.67,27.67-12.69,42.05-17.98.02-.16.02-.32.04-.48l.24-1.93c.36-2.89,3.03-5.02,5.92-4.76l1.92.17c2.76.24,5.45.73,8.07,1.42,9.28-3.02,18.68-5.73,28.21-8.16,1.8-3.02,3.86-5.97,6.26-8.77,1.29-2.28,4.52-7.55,11.46-9.35,5.46-1.46,13.47-.68,21.87,9.93,1.01-.16,2-.35,3.01-.51.09-6.03,1.47-12.21,4.13-18.28l.7-1.59c1.08-2.49,3.87-3.81,6.49-3.06l1.59.42c10.24,2.71,18.49,8.96,23.61,17.64,3.07-9.32,8.32-18.77,15.9-28.1-257.16,8.62-463.71,220.45-463.71,479.67,0,80.56,19.97,156.54,55.19,223.27,9.41-2.13,18.93-4.19,28.56-6.18Z"/>
  </g>
</svg>